<svg viewBox="0 0 1000 1000" preserveAspectRatio="none" xmlns="http://www.w3.org/2000/svg" shape-rendering="crispEdges" vector-effect="non-scaling-stroke" xmlns:ns4D="http://www.4D.com" ns4D:vp-deflate="0.5" ns4D:renderOffScreen="false">
	
	<line x1="0" y1="0" x2="1000" y2="0" stroke="black"  vector-effect="non-scaling-stroke" />
	<line x1="0" y1="90.909090909091" x2="1000" y2="90.909090909091" stroke="black"  vector-effect="non-scaling-stroke" />
	<line x1="0" y1="181.81818181818" x2="1000" y2="181.81818181818" stroke="black"  vector-effect="non-scaling-stroke" />
	<line x1="0" y1="272.72727272727" x2="1000" y2="272.72727272727" stroke="black"  vector-effect="non-scaling-stroke" />
	<line x1="0" y1="363.63636363636" x2="1000" y2="363.63636363636" stroke="black"  vector-effect="non-scaling-stroke" />
	<line x1="0" y1="454.54545454545" x2="1000" y2="454.54545454545" stroke="black"  vector-effect="non-scaling-stroke" />
	<line x1="0" y1="545.45454545455" x2="1000" y2="545.45454545455" stroke="black"  vector-effect="non-scaling-stroke" />
	<line x1="0" y1="636.36363636364" x2="1000" y2="636.36363636364" stroke="black"  vector-effect="non-scaling-stroke" />
	<line x1="0" y1="727.27272727273" x2="1000" y2="727.27272727273" stroke="black"  vector-effect="non-scaling-stroke" />
	<line x1="0" y1="818.18181818182" x2="1000" y2="818.18181818182" stroke="black"  vector-effect="non-scaling-stroke" />
	<line x1="0" y1="909.09090909091" x2="1000" y2="909.09090909091" stroke="black"  vector-effect="non-scaling-stroke" />
	<line x1="0" y1="1000" x2="1000" y2="1000" stroke="black"  vector-effect="non-scaling-stroke" />
	<line x1="0" y1="0" x2="0" y2="1000" stroke="black"  vector-effect="non-scaling-stroke" />
	<line x1="333.33333333333" y1="0" x2="333.33333333333" y2="1000" stroke="black"  vector-effect="non-scaling-stroke" />
	<line x1="666.66666666667" y1="0" x2="666.66666666667" y2="1000" stroke="black"  vector-effect="non-scaling-stroke" />
	<line x1="1000" y1="0" x2="1000" y2="1000" stroke="black"  vector-effect="non-scaling-stroke" />

	<rect width="1000" height="1000" fill="none" stroke="black"  vector-effect="non-scaling-stroke"/>
</svg>