<svg viewBox="0 0 1000 1000" preserveAspectRatio="none" xmlns="http://www.w3.org/2000/svg" shape-rendering="crispEdges" vector-effect="non-scaling-stroke" xmlns:ns4D="http://www.4D.com" ns4D:vp-deflate="0.5" ns4D:renderOffScreen="false">
	
	<line x1="0" y1="0" x2="1000" y2="0" stroke="#000000"  vector-effect="non-scaling-stroke" />
	<line x1="0" y1="52.631578947368" x2="1000" y2="52.631578947368" stroke="#000000"  vector-effect="non-scaling-stroke" />
	<line x1="0" y1="105.26315789474" x2="1000" y2="105.26315789474" stroke="#000000"  vector-effect="non-scaling-stroke" />
	<line x1="0" y1="157.89473684211" x2="1000" y2="157.89473684211" stroke="#000000"  vector-effect="non-scaling-stroke" />
	<line x1="0" y1="210.52631578947" x2="1000" y2="210.52631578947" stroke="#000000"  vector-effect="non-scaling-stroke" />
	<line x1="0" y1="263.15789473684" x2="1000" y2="263.15789473684" stroke="#000000"  vector-effect="non-scaling-stroke" />
	<line x1="0" y1="315.78947368421" x2="1000" y2="315.78947368421" stroke="#000000"  vector-effect="non-scaling-stroke" />
	<line x1="0" y1="368.42105263158" x2="1000" y2="368.42105263158" stroke="#000000"  vector-effect="non-scaling-stroke" />
	<line x1="0" y1="421.05263157895" x2="1000" y2="421.05263157895" stroke="#000000"  vector-effect="non-scaling-stroke" />
	<line x1="0" y1="473.68421052632" x2="1000" y2="473.68421052632" stroke="#000000"  vector-effect="non-scaling-stroke" />
	<line x1="0" y1="526.31578947368" x2="1000" y2="526.31578947368" stroke="#000000"  vector-effect="non-scaling-stroke" />
	<line x1="0" y1="578.94736842105" x2="1000" y2="578.94736842105" stroke="#000000"  vector-effect="non-scaling-stroke" />
	<line x1="0" y1="631.57894736842" x2="1000" y2="631.57894736842" stroke="#000000"  vector-effect="non-scaling-stroke" />
	<line x1="0" y1="684.21052631579" x2="1000" y2="684.21052631579" stroke="#000000"  vector-effect="non-scaling-stroke" />
	<line x1="0" y1="736.84210526316" x2="1000" y2="736.84210526316" stroke="#000000"  vector-effect="non-scaling-stroke" />
	<line x1="0" y1="789.47368421053" x2="1000" y2="789.47368421053" stroke="#000000"  vector-effect="non-scaling-stroke" />
	<line x1="0" y1="842.10526315789" x2="1000" y2="842.10526315789" stroke="#000000"  vector-effect="non-scaling-stroke" />
	<line x1="0" y1="894.73684210526" x2="1000" y2="894.73684210526" stroke="#000000"  vector-effect="non-scaling-stroke" />
	<line x1="0" y1="947.36842105263" x2="1000" y2="947.36842105263" stroke="#000000"  vector-effect="non-scaling-stroke" />
	<line x1="0" y1="1000" x2="1000" y2="1000" stroke="#000000"  vector-effect="non-scaling-stroke" />
	<line x1="0" y1="0" x2="0" y2="1000" stroke="#000000"  vector-effect="non-scaling-stroke" />
	<line x1="1000" y1="0" x2="1000" y2="1000" stroke="#000000"  vector-effect="non-scaling-stroke" />

	<rect width="1000" height="1000" fill="none" stroke="#000000"  vector-effect="non-scaling-stroke"/>
</svg>