<svg viewBox="0 0 1000 1000" preserveAspectRatio="none" xmlns="http://www.w3.org/2000/svg" shape-rendering="crispEdges" vector-effect="non-scaling-stroke" xmlns:ns4D="http://www.4D.com" ns4D:vp-deflate="0.005" ns4D:renderOffScreen="false">
	
	<line x1="0" y1="0" x2="1000" y2="0" stroke="#000000" stroke-width="0.01" vector-effect="non-scaling-stroke" />
	<line x1="0" y1="76.923076923077" x2="1000" y2="76.923076923077" stroke="#000000" stroke-width="0.01" vector-effect="non-scaling-stroke" />
	<line x1="0" y1="153.84615384615" x2="1000" y2="153.84615384615" stroke="#000000" stroke-width="0.01" vector-effect="non-scaling-stroke" />
	<line x1="0" y1="230.76923076923" x2="1000" y2="230.76923076923" stroke="#000000" stroke-width="0.01" vector-effect="non-scaling-stroke" />
	<line x1="0" y1="307.69230769231" x2="1000" y2="307.69230769231" stroke="#000000" stroke-width="0.01" vector-effect="non-scaling-stroke" />
	<line x1="0" y1="384.61538461538" x2="1000" y2="384.61538461538" stroke="#000000" stroke-width="0.01" vector-effect="non-scaling-stroke" />
	<line x1="0" y1="461.53846153846" x2="1000" y2="461.53846153846" stroke="#000000" stroke-width="0.01" vector-effect="non-scaling-stroke" />
	<line x1="0" y1="538.46153846154" x2="1000" y2="538.46153846154" stroke="#000000" stroke-width="0.01" vector-effect="non-scaling-stroke" />
	<line x1="0" y1="615.38461538462" x2="1000" y2="615.38461538462" stroke="#000000" stroke-width="0.01" vector-effect="non-scaling-stroke" />
	<line x1="0" y1="692.30769230769" x2="1000" y2="692.30769230769" stroke="#000000" stroke-width="0.01" vector-effect="non-scaling-stroke" />
	<line x1="0" y1="769.23076923077" x2="1000" y2="769.23076923077" stroke="#000000" stroke-width="0.01" vector-effect="non-scaling-stroke" />
	<line x1="0" y1="846.15384615385" x2="1000" y2="846.15384615385" stroke="#000000" stroke-width="0.01" vector-effect="non-scaling-stroke" />
	<line x1="0" y1="923.07692307692" x2="1000" y2="923.07692307692" stroke="#000000" stroke-width="0.01" vector-effect="non-scaling-stroke" />
	<line x1="0" y1="1000" x2="1000" y2="1000" stroke="#000000" stroke-width="0.01" vector-effect="non-scaling-stroke" />
	<line x1="0" y1="0" x2="0" y2="1000" stroke="#000000" stroke-width="0.01" vector-effect="non-scaling-stroke" />
	<line x1="1000" y1="0" x2="1000" y2="1000" stroke="#000000" stroke-width="0.01" vector-effect="non-scaling-stroke" />

	<rect width="1000" height="1000" fill="none" stroke="#000000" stroke-width="0.01" vector-effect="non-scaling-stroke"/>
</svg>