<svg viewBox="0 0 1000 1000" preserveAspectRatio="none" xmlns="http://www.w3.org/2000/svg" shape-rendering="crispEdges" vector-effect="non-scaling-stroke" xmlns:ns4D="http://www.4D.com" ns4D:vp-deflate="0.005" ns4D:renderOffScreen="false">
	
	<line x1="0" y1="0" x2="1000" y2="0" stroke="#000000" stroke-width="0.01" vector-effect="non-scaling-stroke" />
	<line x1="0" y1="45.454545454545" x2="1000" y2="45.454545454545" stroke="#000000" stroke-width="0.01" vector-effect="non-scaling-stroke" />
	<line x1="0" y1="90.909090909091" x2="1000" y2="90.909090909091" stroke="#000000" stroke-width="0.01" vector-effect="non-scaling-stroke" />
	<line x1="0" y1="136.36363636364" x2="1000" y2="136.36363636364" stroke="#000000" stroke-width="0.01" vector-effect="non-scaling-stroke" />
	<line x1="0" y1="181.81818181818" x2="1000" y2="181.81818181818" stroke="#000000" stroke-width="0.01" vector-effect="non-scaling-stroke" />
	<line x1="0" y1="227.27272727273" x2="1000" y2="227.27272727273" stroke="#000000" stroke-width="0.01" vector-effect="non-scaling-stroke" />
	<line x1="0" y1="272.72727272727" x2="1000" y2="272.72727272727" stroke="#000000" stroke-width="0.01" vector-effect="non-scaling-stroke" />
	<line x1="0" y1="318.18181818182" x2="1000" y2="318.18181818182" stroke="#000000" stroke-width="0.01" vector-effect="non-scaling-stroke" />
	<line x1="0" y1="363.63636363636" x2="1000" y2="363.63636363636" stroke="#000000" stroke-width="0.01" vector-effect="non-scaling-stroke" />
	<line x1="0" y1="409.09090909091" x2="1000" y2="409.09090909091" stroke="#000000" stroke-width="0.01" vector-effect="non-scaling-stroke" />
	<line x1="0" y1="454.54545454545" x2="1000" y2="454.54545454545" stroke="#000000" stroke-width="0.01" vector-effect="non-scaling-stroke" />
	<line x1="0" y1="500" x2="1000" y2="500" stroke="#000000" stroke-width="0.01" vector-effect="non-scaling-stroke" />
	<line x1="0" y1="545.45454545455" x2="1000" y2="545.45454545455" stroke="#000000" stroke-width="0.01" vector-effect="non-scaling-stroke" />
	<line x1="0" y1="590.90909090909" x2="1000" y2="590.90909090909" stroke="#000000" stroke-width="0.01" vector-effect="non-scaling-stroke" />
	<line x1="0" y1="636.36363636364" x2="1000" y2="636.36363636364" stroke="#000000" stroke-width="0.01" vector-effect="non-scaling-stroke" />
	<line x1="0" y1="681.81818181818" x2="1000" y2="681.81818181818" stroke="#000000" stroke-width="0.01" vector-effect="non-scaling-stroke" />
	<line x1="0" y1="727.27272727273" x2="1000" y2="727.27272727273" stroke="#000000" stroke-width="0.01" vector-effect="non-scaling-stroke" />
	<line x1="0" y1="772.72727272727" x2="1000" y2="772.72727272727" stroke="#000000" stroke-width="0.01" vector-effect="non-scaling-stroke" />
	<line x1="0" y1="818.18181818182" x2="1000" y2="818.18181818182" stroke="#000000" stroke-width="0.01" vector-effect="non-scaling-stroke" />
	<line x1="0" y1="863.63636363636" x2="1000" y2="863.63636363636" stroke="#000000" stroke-width="0.01" vector-effect="non-scaling-stroke" />
	<line x1="0" y1="909.09090909091" x2="1000" y2="909.09090909091" stroke="#000000" stroke-width="0.01" vector-effect="non-scaling-stroke" />
	<line x1="0" y1="954.54545454545" x2="1000" y2="954.54545454545" stroke="#000000" stroke-width="0.01" vector-effect="non-scaling-stroke" />
	<line x1="0" y1="1000" x2="1000" y2="1000" stroke="#000000" stroke-width="0.01" vector-effect="non-scaling-stroke" />
	<line x1="0" y1="0" x2="0" y2="1000" stroke="#000000" stroke-width="0.01" vector-effect="non-scaling-stroke" />
	<line x1="1000" y1="0" x2="1000" y2="1000" stroke="#000000" stroke-width="0.01" vector-effect="non-scaling-stroke" />

	<rect width="1000" height="1000" fill="none" stroke="#000000" stroke-width="0.01" vector-effect="non-scaling-stroke"/>
</svg>