<svg viewBox="0 0 1000 1000" preserveAspectRatio="none" xmlns="http://www.w3.org/2000/svg" shape-rendering="crispEdges" vector-effect="non-scaling-stroke" xmlns:ns4D="http://www.4D.com" ns4D:vp-deflate="0.005" ns4D:renderOffScreen="false">
	
	<line x1="0" y1="0" x2="1000" y2="0" stroke="black" stroke-width="0.01" vector-effect="non-scaling-stroke" />
	<line x1="0" y1="66.666666666667" x2="1000" y2="66.666666666667" stroke="black" stroke-width="0.01" vector-effect="non-scaling-stroke" />
	<line x1="0" y1="133.33333333333" x2="1000" y2="133.33333333333" stroke="black" stroke-width="0.01" vector-effect="non-scaling-stroke" />
	<line x1="0" y1="200" x2="1000" y2="200" stroke="black" stroke-width="0.01" vector-effect="non-scaling-stroke" />
	<line x1="0" y1="266.66666666667" x2="1000" y2="266.66666666667" stroke="black" stroke-width="0.01" vector-effect="non-scaling-stroke" />
	<line x1="0" y1="333.33333333333" x2="1000" y2="333.33333333333" stroke="black" stroke-width="0.01" vector-effect="non-scaling-stroke" />
	<line x1="0" y1="400" x2="1000" y2="400" stroke="black" stroke-width="0.01" vector-effect="non-scaling-stroke" />
	<line x1="0" y1="466.66666666667" x2="1000" y2="466.66666666667" stroke="black" stroke-width="0.01" vector-effect="non-scaling-stroke" />
	<line x1="0" y1="533.33333333333" x2="1000" y2="533.33333333333" stroke="black" stroke-width="0.01" vector-effect="non-scaling-stroke" />
	<line x1="0" y1="600" x2="1000" y2="600" stroke="black" stroke-width="0.01" vector-effect="non-scaling-stroke" />
	<line x1="0" y1="666.66666666667" x2="1000" y2="666.66666666667" stroke="black" stroke-width="0.01" vector-effect="non-scaling-stroke" />
	<line x1="0" y1="733.33333333333" x2="1000" y2="733.33333333333" stroke="black" stroke-width="0.01" vector-effect="non-scaling-stroke" />
	<line x1="0" y1="800" x2="1000" y2="800" stroke="black" stroke-width="0.01" vector-effect="non-scaling-stroke" />
	<line x1="0" y1="866.66666666667" x2="1000" y2="866.66666666667" stroke="black" stroke-width="0.01" vector-effect="non-scaling-stroke" />
	<line x1="0" y1="933.33333333333" x2="1000" y2="933.33333333333" stroke="black" stroke-width="0.01" vector-effect="non-scaling-stroke" />
	<line x1="0" y1="1000" x2="1000" y2="1000" stroke="black" stroke-width="0.01" vector-effect="non-scaling-stroke" />
	<line x1="0" y1="0" x2="0" y2="1000" stroke="black" stroke-width="0.01" vector-effect="non-scaling-stroke" />
	<line x1="1000" y1="0" x2="1000" y2="1000" stroke="black" stroke-width="0.01" vector-effect="non-scaling-stroke" />

	<rect width="1000" height="1000" fill="none" stroke="black" stroke-width="0.01" vector-effect="non-scaling-stroke"/>
</svg>