<svg viewBox="0 0 1000 1000" preserveAspectRatio="none" xmlns="http://www.w3.org/2000/svg" shape-rendering="crispEdges" vector-effect="non-scaling-stroke" xmlns:ns4D="http://www.4D.com" ns4D:vp-deflate="0.005" ns4D:renderOffScreen="false">
	
	<line x1="0" y1="0" x2="1000" y2="0" stroke="#000000" stroke-width="0.01" vector-effect="non-scaling-stroke" />
	<line x1="0" y1="32.258064516129" x2="1000" y2="32.258064516129" stroke="#000000" stroke-width="0.01" vector-effect="non-scaling-stroke" />
	<line x1="0" y1="64.516129032258" x2="1000" y2="64.516129032258" stroke="#000000" stroke-width="0.01" vector-effect="non-scaling-stroke" />
	<line x1="0" y1="96.774193548387" x2="1000" y2="96.774193548387" stroke="#000000" stroke-width="0.01" vector-effect="non-scaling-stroke" />
	<line x1="0" y1="129.03225806452" x2="1000" y2="129.03225806452" stroke="#000000" stroke-width="0.01" vector-effect="non-scaling-stroke" />
	<line x1="0" y1="161.29032258065" x2="1000" y2="161.29032258065" stroke="#000000" stroke-width="0.01" vector-effect="non-scaling-stroke" />
	<line x1="0" y1="193.54838709677" x2="1000" y2="193.54838709677" stroke="#000000" stroke-width="0.01" vector-effect="non-scaling-stroke" />
	<line x1="0" y1="225.8064516129" x2="1000" y2="225.8064516129" stroke="#000000" stroke-width="0.01" vector-effect="non-scaling-stroke" />
	<line x1="0" y1="258.06451612903" x2="1000" y2="258.06451612903" stroke="#000000" stroke-width="0.01" vector-effect="non-scaling-stroke" />
	<line x1="0" y1="290.32258064516" x2="1000" y2="290.32258064516" stroke="#000000" stroke-width="0.01" vector-effect="non-scaling-stroke" />
	<line x1="0" y1="322.58064516129" x2="1000" y2="322.58064516129" stroke="#000000" stroke-width="0.01" vector-effect="non-scaling-stroke" />
	<line x1="0" y1="354.83870967742" x2="1000" y2="354.83870967742" stroke="#000000" stroke-width="0.01" vector-effect="non-scaling-stroke" />
	<line x1="0" y1="387.09677419355" x2="1000" y2="387.09677419355" stroke="#000000" stroke-width="0.01" vector-effect="non-scaling-stroke" />
	<line x1="0" y1="419.35483870968" x2="1000" y2="419.35483870968" stroke="#000000" stroke-width="0.01" vector-effect="non-scaling-stroke" />
	<line x1="0" y1="451.61290322581" x2="1000" y2="451.61290322581" stroke="#000000" stroke-width="0.01" vector-effect="non-scaling-stroke" />
	<line x1="0" y1="483.87096774194" x2="1000" y2="483.87096774194" stroke="#000000" stroke-width="0.01" vector-effect="non-scaling-stroke" />
	<line x1="0" y1="516.12903225806" x2="1000" y2="516.12903225806" stroke="#000000" stroke-width="0.01" vector-effect="non-scaling-stroke" />
	<line x1="0" y1="548.38709677419" x2="1000" y2="548.38709677419" stroke="#000000" stroke-width="0.01" vector-effect="non-scaling-stroke" />
	<line x1="0" y1="580.64516129032" x2="1000" y2="580.64516129032" stroke="#000000" stroke-width="0.01" vector-effect="non-scaling-stroke" />
	<line x1="0" y1="612.90322580645" x2="1000" y2="612.90322580645" stroke="#000000" stroke-width="0.01" vector-effect="non-scaling-stroke" />
	<line x1="0" y1="645.16129032258" x2="1000" y2="645.16129032258" stroke="#000000" stroke-width="0.01" vector-effect="non-scaling-stroke" />
	<line x1="0" y1="677.41935483871" x2="1000" y2="677.41935483871" stroke="#000000" stroke-width="0.01" vector-effect="non-scaling-stroke" />
	<line x1="0" y1="709.67741935484" x2="1000" y2="709.67741935484" stroke="#000000" stroke-width="0.01" vector-effect="non-scaling-stroke" />
	<line x1="0" y1="741.93548387097" x2="1000" y2="741.93548387097" stroke="#000000" stroke-width="0.01" vector-effect="non-scaling-stroke" />
	<line x1="0" y1="774.1935483871" x2="1000" y2="774.1935483871" stroke="#000000" stroke-width="0.01" vector-effect="non-scaling-stroke" />
	<line x1="0" y1="806.45161290323" x2="1000" y2="806.45161290323" stroke="#000000" stroke-width="0.01" vector-effect="non-scaling-stroke" />
	<line x1="0" y1="838.70967741935" x2="1000" y2="838.70967741935" stroke="#000000" stroke-width="0.01" vector-effect="non-scaling-stroke" />
	<line x1="0" y1="870.96774193548" x2="1000" y2="870.96774193548" stroke="#000000" stroke-width="0.01" vector-effect="non-scaling-stroke" />
	<line x1="0" y1="903.22580645161" x2="1000" y2="903.22580645161" stroke="#000000" stroke-width="0.01" vector-effect="non-scaling-stroke" />
	<line x1="0" y1="935.48387096774" x2="1000" y2="935.48387096774" stroke="#000000" stroke-width="0.01" vector-effect="non-scaling-stroke" />
	<line x1="0" y1="967.74193548387" x2="1000" y2="967.74193548387" stroke="#000000" stroke-width="0.01" vector-effect="non-scaling-stroke" />
	<line x1="0" y1="1000" x2="1000" y2="1000" stroke="#000000" stroke-width="0.01" vector-effect="non-scaling-stroke" />
	<line x1="0" y1="0" x2="0" y2="1000" stroke="#000000" stroke-width="0.01" vector-effect="non-scaling-stroke" />
	<line x1="1000" y1="0" x2="1000" y2="1000" stroke="#000000" stroke-width="0.01" vector-effect="non-scaling-stroke" />

	<rect width="1000" height="1000" fill="none" stroke="#000000" stroke-width="0.01" vector-effect="non-scaling-stroke"/>
</svg>