<svg viewBox="0 0 1000 1000" preserveAspectRatio="none" xmlns="http://www.w3.org/2000/svg" shape-rendering="crispEdges" vector-effect="non-scaling-stroke" xmlns:ns4D="http://www.4D.com" ns4D:vp-deflate="0.005" ns4D:renderOffScreen="false">
	
	<line x1="0" y1="0" x2="1000" y2="0" stroke="#000000" stroke-width="0.01" vector-effect="non-scaling-stroke" />
	<line x1="0" y1="55.555555555556" x2="1000" y2="55.555555555556" stroke="#000000" stroke-width="0.01" vector-effect="non-scaling-stroke" />
	<line x1="0" y1="111.11111111111" x2="1000" y2="111.11111111111" stroke="#000000" stroke-width="0.01" vector-effect="non-scaling-stroke" />
	<line x1="0" y1="166.66666666667" x2="1000" y2="166.66666666667" stroke="#000000" stroke-width="0.01" vector-effect="non-scaling-stroke" />
	<line x1="0" y1="222.22222222222" x2="1000" y2="222.22222222222" stroke="#000000" stroke-width="0.01" vector-effect="non-scaling-stroke" />
	<line x1="0" y1="277.77777777778" x2="1000" y2="277.77777777778" stroke="#000000" stroke-width="0.01" vector-effect="non-scaling-stroke" />
	<line x1="0" y1="333.33333333333" x2="1000" y2="333.33333333333" stroke="#000000" stroke-width="0.01" vector-effect="non-scaling-stroke" />
	<line x1="0" y1="388.88888888889" x2="1000" y2="388.88888888889" stroke="#000000" stroke-width="0.01" vector-effect="non-scaling-stroke" />
	<line x1="0" y1="444.44444444444" x2="1000" y2="444.44444444444" stroke="#000000" stroke-width="0.01" vector-effect="non-scaling-stroke" />
	<line x1="0" y1="500" x2="1000" y2="500" stroke="#000000" stroke-width="0.01" vector-effect="non-scaling-stroke" />
	<line x1="0" y1="555.55555555556" x2="1000" y2="555.55555555556" stroke="#000000" stroke-width="0.01" vector-effect="non-scaling-stroke" />
	<line x1="0" y1="611.11111111111" x2="1000" y2="611.11111111111" stroke="#000000" stroke-width="0.01" vector-effect="non-scaling-stroke" />
	<line x1="0" y1="666.66666666667" x2="1000" y2="666.66666666667" stroke="#000000" stroke-width="0.01" vector-effect="non-scaling-stroke" />
	<line x1="0" y1="722.22222222222" x2="1000" y2="722.22222222222" stroke="#000000" stroke-width="0.01" vector-effect="non-scaling-stroke" />
	<line x1="0" y1="777.77777777778" x2="1000" y2="777.77777777778" stroke="#000000" stroke-width="0.01" vector-effect="non-scaling-stroke" />
	<line x1="0" y1="833.33333333333" x2="1000" y2="833.33333333333" stroke="#000000" stroke-width="0.01" vector-effect="non-scaling-stroke" />
	<line x1="0" y1="888.88888888889" x2="1000" y2="888.88888888889" stroke="#000000" stroke-width="0.01" vector-effect="non-scaling-stroke" />
	<line x1="0" y1="944.44444444444" x2="1000" y2="944.44444444444" stroke="#000000" stroke-width="0.01" vector-effect="non-scaling-stroke" />
	<line x1="0" y1="1000" x2="1000" y2="1000" stroke="#000000" stroke-width="0.01" vector-effect="non-scaling-stroke" />
	<line x1="0" y1="0" x2="0" y2="1000" stroke="#000000" stroke-width="0.01" vector-effect="non-scaling-stroke" />
	<line x1="1000" y1="0" x2="1000" y2="1000" stroke="#000000" stroke-width="0.01" vector-effect="non-scaling-stroke" />

	<rect width="1000" height="1000" fill="none" stroke="#000000" stroke-width="0.01" vector-effect="non-scaling-stroke"/>
</svg>