<svg viewBox="0 0 1000 1000" preserveAspectRatio="none" xmlns="http://www.w3.org/2000/svg" shape-rendering="crispEdges" vector-effect="non-scaling-stroke" xmlns:ns4D="http://www.4D.com" ns4D:vp-deflate="0.005" ns4D:renderOffScreen="false">
	
	<line x1="0" y1="0" x2="1000" y2="0" stroke="#000000" stroke-width="0.01" vector-effect="non-scaling-stroke" />
	<line x1="0" y1="62.5" x2="1000" y2="62.5" stroke="#000000" stroke-width="0.01" vector-effect="non-scaling-stroke" />
	<line x1="0" y1="125" x2="1000" y2="125" stroke="#000000" stroke-width="0.01" vector-effect="non-scaling-stroke" />
	<line x1="0" y1="187.5" x2="1000" y2="187.5" stroke="#000000" stroke-width="0.01" vector-effect="non-scaling-stroke" />
	<line x1="0" y1="250" x2="1000" y2="250" stroke="#000000" stroke-width="0.01" vector-effect="non-scaling-stroke" />
	<line x1="0" y1="312.5" x2="1000" y2="312.5" stroke="#000000" stroke-width="0.01" vector-effect="non-scaling-stroke" />
	<line x1="0" y1="375" x2="1000" y2="375" stroke="#000000" stroke-width="0.01" vector-effect="non-scaling-stroke" />
	<line x1="0" y1="437.5" x2="1000" y2="437.5" stroke="#000000" stroke-width="0.01" vector-effect="non-scaling-stroke" />
	<line x1="0" y1="500" x2="1000" y2="500" stroke="#000000" stroke-width="0.01" vector-effect="non-scaling-stroke" />
	<line x1="0" y1="562.5" x2="1000" y2="562.5" stroke="#000000" stroke-width="0.01" vector-effect="non-scaling-stroke" />
	<line x1="0" y1="625" x2="1000" y2="625" stroke="#000000" stroke-width="0.01" vector-effect="non-scaling-stroke" />
	<line x1="0" y1="687.5" x2="1000" y2="687.5" stroke="#000000" stroke-width="0.01" vector-effect="non-scaling-stroke" />
	<line x1="0" y1="750" x2="1000" y2="750" stroke="#000000" stroke-width="0.01" vector-effect="non-scaling-stroke" />
	<line x1="0" y1="812.5" x2="1000" y2="812.5" stroke="#000000" stroke-width="0.01" vector-effect="non-scaling-stroke" />
	<line x1="0" y1="875" x2="1000" y2="875" stroke="#000000" stroke-width="0.01" vector-effect="non-scaling-stroke" />
	<line x1="0" y1="937.5" x2="1000" y2="937.5" stroke="#000000" stroke-width="0.01" vector-effect="non-scaling-stroke" />
	<line x1="0" y1="1000" x2="1000" y2="1000" stroke="#000000" stroke-width="0.01" vector-effect="non-scaling-stroke" />
	<line x1="0" y1="0" x2="0" y2="1000" stroke="#000000" stroke-width="0.01" vector-effect="non-scaling-stroke" />
	<line x1="1000" y1="0" x2="1000" y2="1000" stroke="#000000" stroke-width="0.01" vector-effect="non-scaling-stroke" />

	<rect width="1000" height="1000" fill="none" stroke="#000000" stroke-width="0.01" vector-effect="non-scaling-stroke"/>
</svg>