<svg viewBox="0 0 1000 1000" preserveAspectRatio="none" xmlns="http://www.w3.org/2000/svg" shape-rendering="crispEdges" vector-effect="non-scaling-stroke" xmlns:ns4D="http://www.4D.com" ns4D:vp-deflate="0.5" ns4D:renderOffScreen="false">
	
	<line x1="0" y1="0" x2="1000" y2="0" stroke="#000000"  vector-effect="non-scaling-stroke" />
	<line x1="0" y1="166.66666666667" x2="1000" y2="166.66666666667" stroke="#000000"  vector-effect="non-scaling-stroke" />
	<line x1="0" y1="333.33333333333" x2="1000" y2="333.33333333333" stroke="#000000"  vector-effect="non-scaling-stroke" />
	<line x1="0" y1="500" x2="1000" y2="500" stroke="#000000"  vector-effect="non-scaling-stroke" />
	<line x1="0" y1="666.66666666667" x2="1000" y2="666.66666666667" stroke="#000000"  vector-effect="non-scaling-stroke" />
	<line x1="0" y1="833.33333333333" x2="1000" y2="833.33333333333" stroke="#000000"  vector-effect="non-scaling-stroke" />
	<line x1="0" y1="1000" x2="1000" y2="1000" stroke="#000000"  vector-effect="non-scaling-stroke" />
	<line x1="0" y1="0" x2="0" y2="1000" stroke="#000000"  vector-effect="non-scaling-stroke" />
	<line x1="45.454545454545" y1="0" x2="45.454545454545" y2="1000" stroke="#000000"  vector-effect="non-scaling-stroke" />
	<line x1="90.909090909091" y1="0" x2="90.909090909091" y2="1000" stroke="#000000"  vector-effect="non-scaling-stroke" />
	<line x1="136.36363636364" y1="0" x2="136.36363636364" y2="1000" stroke="#000000"  vector-effect="non-scaling-stroke" />
	<line x1="181.81818181818" y1="0" x2="181.81818181818" y2="1000" stroke="#000000"  vector-effect="non-scaling-stroke" />
	<line x1="227.27272727273" y1="0" x2="227.27272727273" y2="1000" stroke="#000000"  vector-effect="non-scaling-stroke" />
	<line x1="272.72727272727" y1="0" x2="272.72727272727" y2="1000" stroke="#000000"  vector-effect="non-scaling-stroke" />
	<line x1="318.18181818182" y1="0" x2="318.18181818182" y2="1000" stroke="#000000"  vector-effect="non-scaling-stroke" />
	<line x1="363.63636363636" y1="0" x2="363.63636363636" y2="1000" stroke="#000000"  vector-effect="non-scaling-stroke" />
	<line x1="409.09090909091" y1="0" x2="409.09090909091" y2="1000" stroke="#000000"  vector-effect="non-scaling-stroke" />
	<line x1="454.54545454545" y1="0" x2="454.54545454545" y2="1000" stroke="#000000"  vector-effect="non-scaling-stroke" />
	<line x1="500" y1="0" x2="500" y2="1000" stroke="#000000"  vector-effect="non-scaling-stroke" />
	<line x1="545.45454545455" y1="0" x2="545.45454545455" y2="1000" stroke="#000000"  vector-effect="non-scaling-stroke" />
	<line x1="590.90909090909" y1="0" x2="590.90909090909" y2="1000" stroke="#000000"  vector-effect="non-scaling-stroke" />
	<line x1="636.36363636364" y1="0" x2="636.36363636364" y2="1000" stroke="#000000"  vector-effect="non-scaling-stroke" />
	<line x1="681.81818181818" y1="0" x2="681.81818181818" y2="1000" stroke="#000000"  vector-effect="non-scaling-stroke" />
	<line x1="727.27272727273" y1="0" x2="727.27272727273" y2="1000" stroke="#000000"  vector-effect="non-scaling-stroke" />
	<line x1="772.72727272727" y1="0" x2="772.72727272727" y2="1000" stroke="#000000"  vector-effect="non-scaling-stroke" />
	<line x1="818.18181818182" y1="0" x2="818.18181818182" y2="1000" stroke="#000000"  vector-effect="non-scaling-stroke" />
	<line x1="863.63636363636" y1="0" x2="863.63636363636" y2="1000" stroke="#000000"  vector-effect="non-scaling-stroke" />
	<line x1="909.09090909091" y1="0" x2="909.09090909091" y2="1000" stroke="#000000"  vector-effect="non-scaling-stroke" />
	<line x1="954.54545454545" y1="0" x2="954.54545454545" y2="1000" stroke="#000000"  vector-effect="non-scaling-stroke" />
	<line x1="1000" y1="0" x2="1000" y2="1000" stroke="#000000"  vector-effect="non-scaling-stroke" />

	<rect width="1000" height="1000" fill="none" stroke="#000000"  vector-effect="non-scaling-stroke"/>
</svg>