<svg viewBox="0 0 1000 1000" preserveAspectRatio="none" xmlns="http://www.w3.org/2000/svg" shape-rendering="crispEdges" vector-effect="non-scaling-stroke" xmlns:ns4D="http://www.4D.com" ns4D:vp-deflate="0.5" ns4D:renderOffScreen="false">
	
	<line x1="0" y1="0" x2="1000" y2="0" stroke="#000000"  vector-effect="non-scaling-stroke" />
	<line x1="0" y1="166.66666666667" x2="1000" y2="166.66666666667" stroke="#000000"  vector-effect="non-scaling-stroke" />
	<line x1="0" y1="333.33333333333" x2="1000" y2="333.33333333333" stroke="#000000"  vector-effect="non-scaling-stroke" />
	<line x1="0" y1="500" x2="1000" y2="500" stroke="#000000"  vector-effect="non-scaling-stroke" />
	<line x1="0" y1="666.66666666667" x2="1000" y2="666.66666666667" stroke="#000000"  vector-effect="non-scaling-stroke" />
	<line x1="0" y1="833.33333333333" x2="1000" y2="833.33333333333" stroke="#000000"  vector-effect="non-scaling-stroke" />
	<line x1="0" y1="1000" x2="1000" y2="1000" stroke="#000000"  vector-effect="non-scaling-stroke" />
	<line x1="0" y1="0" x2="0" y2="1000" stroke="#000000"  vector-effect="non-scaling-stroke" />
	<line x1="100" y1="0" x2="100" y2="1000" stroke="#000000"  vector-effect="non-scaling-stroke" />
	<line x1="200" y1="0" x2="200" y2="1000" stroke="#000000"  vector-effect="non-scaling-stroke" />
	<line x1="300" y1="0" x2="300" y2="1000" stroke="#000000"  vector-effect="non-scaling-stroke" />
	<line x1="400" y1="0" x2="400" y2="1000" stroke="#000000"  vector-effect="non-scaling-stroke" />
	<line x1="500" y1="0" x2="500" y2="1000" stroke="#000000"  vector-effect="non-scaling-stroke" />
	<line x1="600" y1="0" x2="600" y2="1000" stroke="#000000"  vector-effect="non-scaling-stroke" />
	<line x1="700" y1="0" x2="700" y2="1000" stroke="#000000"  vector-effect="non-scaling-stroke" />
	<line x1="800" y1="0" x2="800" y2="1000" stroke="#000000"  vector-effect="non-scaling-stroke" />
	<line x1="900" y1="0" x2="900" y2="1000" stroke="#000000"  vector-effect="non-scaling-stroke" />
	<line x1="1000" y1="0" x2="1000" y2="1000" stroke="#000000"  vector-effect="non-scaling-stroke" />

	<rect width="1000" height="1000" fill="none" stroke="#000000"  vector-effect="non-scaling-stroke"/>
</svg>