<svg viewBox="0 0 1000 1000" preserveAspectRatio="none" xmlns="http://www.w3.org/2000/svg" shape-rendering="crispEdges" vector-effect="non-scaling-stroke" xmlns:ns4D="http://www.4D.com" ns4D:vp-deflate="0.5" ns4D:renderOffScreen="false">
	
	<line x1="0" y1="0" x2="1000" y2="0" stroke="#000000"  vector-effect="non-scaling-stroke" />
	<line x1="0" y1="166.66666666667" x2="1000" y2="166.66666666667" stroke="#000000"  vector-effect="non-scaling-stroke" />
	<line x1="0" y1="333.33333333333" x2="1000" y2="333.33333333333" stroke="#000000"  vector-effect="non-scaling-stroke" />
	<line x1="0" y1="500" x2="1000" y2="500" stroke="#000000"  vector-effect="non-scaling-stroke" />
	<line x1="0" y1="666.66666666667" x2="1000" y2="666.66666666667" stroke="#000000"  vector-effect="non-scaling-stroke" />
	<line x1="0" y1="833.33333333333" x2="1000" y2="833.33333333333" stroke="#000000"  vector-effect="non-scaling-stroke" />
	<line x1="0" y1="1000" x2="1000" y2="1000" stroke="#000000"  vector-effect="non-scaling-stroke" />
	<line x1="0" y1="0" x2="0" y2="1000" stroke="#000000"  vector-effect="non-scaling-stroke" />
	<line x1="76.923076923077" y1="0" x2="76.923076923077" y2="1000" stroke="#000000"  vector-effect="non-scaling-stroke" />
	<line x1="153.84615384615" y1="0" x2="153.84615384615" y2="1000" stroke="#000000"  vector-effect="non-scaling-stroke" />
	<line x1="230.76923076923" y1="0" x2="230.76923076923" y2="1000" stroke="#000000"  vector-effect="non-scaling-stroke" />
	<line x1="307.69230769231" y1="0" x2="307.69230769231" y2="1000" stroke="#000000"  vector-effect="non-scaling-stroke" />
	<line x1="384.61538461538" y1="0" x2="384.61538461538" y2="1000" stroke="#000000"  vector-effect="non-scaling-stroke" />
	<line x1="461.53846153846" y1="0" x2="461.53846153846" y2="1000" stroke="#000000"  vector-effect="non-scaling-stroke" />
	<line x1="538.46153846154" y1="0" x2="538.46153846154" y2="1000" stroke="#000000"  vector-effect="non-scaling-stroke" />
	<line x1="615.38461538462" y1="0" x2="615.38461538462" y2="1000" stroke="#000000"  vector-effect="non-scaling-stroke" />
	<line x1="692.30769230769" y1="0" x2="692.30769230769" y2="1000" stroke="#000000"  vector-effect="non-scaling-stroke" />
	<line x1="769.23076923077" y1="0" x2="769.23076923077" y2="1000" stroke="#000000"  vector-effect="non-scaling-stroke" />
	<line x1="846.15384615385" y1="0" x2="846.15384615385" y2="1000" stroke="#000000"  vector-effect="non-scaling-stroke" />
	<line x1="923.07692307692" y1="0" x2="923.07692307692" y2="1000" stroke="#000000"  vector-effect="non-scaling-stroke" />
	<line x1="1000" y1="0" x2="1000" y2="1000" stroke="#000000"  vector-effect="non-scaling-stroke" />

	<rect width="1000" height="1000" fill="none" stroke="#000000"  vector-effect="non-scaling-stroke"/>
</svg>